<?xml version="1.0" encoding="utf-8"?><svg xmlns="http://www.w3.org/2000/svg" xmlns:xlink="http://www.w3.org/1999/xlink" width="1852" height="900" preserveAspectRatio="xMidYMid" viewBox="0 0 1852 900" style="z-index:1;margin-right:-2px;display:block;background-repeat-y:initial;background-repeat-x:initial;background-color:rgb(255, 255, 255);animation-play-state:paused" ><g transform="" style="animation-play-state:paused" ><linearGradient id="lg-0.8827706477567085" x1="0" x2="1" y1="0" y2="0" style="animation-play-state:paused" ><stop stop-color="#02636f" offset="0" style="animation-play-state:paused" ></stop>

  
<stop stop-color="#479096" offset="1" style="animation-play-state:paused" ></stop></linearGradient>
<path d="M 0 0 M 0 771.693 Q 185.2 749.544 370.4 748.09 T 740.8 713.71 T 1111.2 699.717 T 1481.6 640.323 T 1852 618.776 L 1852 239.942 Q 1666.8 244.464 1481.6 235.639 T 1111.2 199.001 T 740.8 188.094 T 370.4 106.101 T 0 111.145 Z" fill="url(#lg-0.8827706477567085)" opacity="0.4" style="opacity:0.4;animation-play-state:paused" ></path>
<path d="M 0 0 M 0 773.043 Q 185.2 818.022 370.4 813.623 T 740.8 745.375 T 1111.2 739.895 T 1481.6 637.355 T 1852 620.733 L 1852 222.237 Q 1666.8 200.352 1481.6 194.073 T 1111.2 218.481 T 740.8 126.881 T 370.4 124.309 T 0 122.038 Z" fill="url(#lg-0.8827706477567085)" opacity="0.4" style="opacity:0.4;animation-play-state:paused" ></path>
<path d="M 0 0 M 0 836.998 Q 185.2 813.962 370.4 810.052 T 740.8 752.416 T 1111.2 712.981 T 1481.6 720.365 T 1852 652.385 L 1852 239.086 Q 1666.8 190.74 1481.6 186.265 T 1111.2 151.385 T 740.8 155.137 T 370.4 116.522 T 0 117.424 Z" fill="url(#lg-0.8827706477567085)" opacity="0.4" style="opacity:0.4;animation-play-state:paused" ></path>
<path d="M 0 0 M 0 807.191 Q 185.2 762.936 370.4 758.563 T 740.8 764.669 T 1111.2 741.328 T 1481.6 714.954 T 1852 674.795 L 1852 221.607 Q 1666.8 217.734 1481.6 211.758 T 1111.2 208.81 T 740.8 136.936 T 370.4 139.081 T 0 88.1785 Z" fill="url(#lg-0.8827706477567085)" opacity="0.4" style="opacity:0.4;animation-play-state:paused" ></path></g></svg>